<svg width="145" height="115" viewBox="0 0 145 115" fill="none" xmlns="http://www.w3.org/2000/svg">
<path d="M122.455 0H138.818L111.545 42H95.1818L122.455 0Z" fill="url(#paint0_linear_236_745)"/>
<rect x="123" width="16" height="69" fill="url(#paint1_linear_236_745)"/>
<rect x="144.091" y="42" width="15" height="49.0909" transform="rotate(90 144.091 42)" fill="url(#paint2_linear_236_745)"/>
<rect x="8.63635" y="72.6251" width="136.364" height="37" fill="#669CFF"/>
<path d="M43.9848 59.528C43.4248 60.0133 42.6408 60.4987 41.6328 60.984C40.6248 61.432 39.5048 61.8427 38.2728 62.216C37.0782 62.5893 35.8275 62.888 34.5208 63.112C33.2515 63.336 32.0568 63.448 30.9368 63.448C27.6888 63.448 24.7582 62.944 22.1448 61.936C19.5688 60.928 17.3475 59.528 15.4808 57.736C13.6515 55.944 12.2328 53.8347 11.2248 51.408C10.2542 48.9813 9.76884 46.3493 9.76884 43.512C9.76884 40.152 10.3102 37.1467 11.3928 34.496C12.5128 31.808 14.0248 29.5493 15.9288 27.72C17.8702 25.8533 20.0915 24.4533 22.5928 23.52C25.0942 22.5493 27.7448 22.064 30.5448 22.064C32.8968 22.064 35.0808 22.344 37.0968 22.904C39.1128 23.464 40.8862 24.1733 42.4168 25.032L40.5688 30.016C39.8222 29.568 38.8888 29.1573 37.7688 28.784C36.6862 28.4107 35.5662 28.112 34.4088 27.888C33.2515 27.6267 32.1688 27.496 31.1608 27.496C28.7715 27.496 26.6062 27.8693 24.6648 28.616C22.7235 29.3253 21.0622 30.3707 19.6808 31.752C18.2995 33.096 17.2355 34.7387 16.4888 36.68C15.7422 38.584 15.3688 40.7307 15.3688 43.12C15.3688 45.3227 15.7422 47.3387 16.4888 49.168C17.2355 50.9973 18.2995 52.584 19.6808 53.928C21.0622 55.2347 22.7048 56.2613 24.6088 57.008C26.5502 57.7173 28.6782 58.072 30.9928 58.072C32.3742 58.072 33.7368 57.9413 35.0808 57.68C36.4248 57.3813 37.5822 56.9707 38.5528 56.448V48.384H30.4888V43.176H43.9848V59.528ZM47.8235 42.784C47.8235 39.984 48.3462 37.352 49.3915 34.888C50.4742 32.3867 51.9675 30.184 53.8715 28.28C55.7755 26.3387 57.9595 24.8267 60.4235 23.744C62.9249 22.624 65.6129 22.064 68.4875 22.064C71.3249 22.064 73.9755 22.624 76.4395 23.744C78.9409 24.8267 81.1435 26.3387 83.0475 28.28C84.9889 30.184 86.5009 32.3867 87.5835 34.888C88.6662 37.352 89.2075 39.984 89.2075 42.784C89.2075 45.6587 88.6662 48.3467 87.5835 50.848C86.5009 53.3493 84.9889 55.552 83.0475 57.456C81.1435 59.3227 78.9409 60.7973 76.4395 61.88C73.9755 62.9253 71.3249 63.448 68.4875 63.448C65.6129 63.448 62.9249 62.9253 60.4235 61.88C57.9595 60.8347 55.7755 59.3787 53.8715 57.512C51.9675 55.6453 50.4742 53.4613 49.3915 50.96C48.3462 48.4587 47.8235 45.7333 47.8235 42.784ZM53.4235 42.84C53.4235 44.968 53.8155 46.9653 54.5995 48.832C55.3835 50.6613 56.4662 52.2853 57.8475 53.704C59.2289 55.1227 60.8342 56.2427 62.6635 57.064C64.4929 57.848 66.4715 58.24 68.5995 58.24C70.6902 58.24 72.6502 57.848 74.4795 57.064C76.3089 56.2427 77.8955 55.1227 79.2395 53.704C80.5835 52.2853 81.6475 50.6613 82.4315 48.832C83.2155 46.9653 83.6075 44.9493 83.6075 42.784C83.6075 40.656 83.2155 38.6587 82.4315 36.792C81.6475 34.888 80.5649 33.2267 79.1835 31.808C77.8022 30.3893 76.1969 29.288 74.3675 28.504C72.5382 27.6827 70.5782 27.272 68.4875 27.272C66.3595 27.272 64.3809 27.6827 62.5515 28.504C60.7222 29.3253 59.1169 30.4453 57.7355 31.864C56.3542 33.2827 55.2902 34.944 54.5435 36.848C53.7969 38.7147 53.4235 40.712 53.4235 42.84Z" fill="#003AA6"/>
<path d="M20.1806 79.448H24.8206V98.52H35.8926V103H20.1806V79.448ZM56.6806 79.448H61.3206V103H56.6806V79.448ZM83.3994 79.448H98.1194V83.928H88.0394V89.272H96.7754V93.752H88.0394V103H83.3994V79.448ZM118.587 79.448H134.651V83.928H123.227V88.952H133.339V93.432H123.227V98.52H135.099V103H118.587V79.448Z" fill="white"/>
<defs>
<linearGradient id="paint0_linear_236_745" x1="133.364" y1="-2.78898e-06" x2="99.2954" y2="38.8294" gradientUnits="userSpaceOnUse">
<stop stop-color="#0056F5"/>
<stop offset="1" stop-color="#2E77FF"/>
</linearGradient>
<linearGradient id="paint1_linear_236_745" x1="131" y1="0" x2="131" y2="69" gradientUnits="userSpaceOnUse">
<stop stop-color="#003AA6"/>
<stop offset="1" stop-color="#001E56"/>
</linearGradient>
<linearGradient id="paint2_linear_236_745" x1="151.591" y1="42" x2="151.591" y2="91.0909" gradientUnits="userSpaceOnUse">
<stop stop-color="#7EABFF"/>
<stop offset="1" stop-color="#4788FF"/>
</linearGradient>
</defs>
</svg>
